<svg width="1440" height="624" xmlns="http://www.w3.org/2000/svg"><g fill="#B23733" fill-rule="evenodd" fill-opacity=".197"><path d="M-17.374 504c27.869-51.976 81.468-77.965 160.799-77.965 118.995 0 131.075 57.687 294.618 57.687S649.6 312.141 807 312.141 999.482 364 1145.046 364c97.042 0 195.36-121.24 294.954-363.718V624H-17.374V504z"/><path d="M-17 572.993c27.869-51.977 81.469-77.965 160.799-77.965 118.995 0 149.07-77.028 294.618-77.028 145.549 0 211.557 24.63 368.957 24.63s157.954-130.77 338.046-130.77c120.061 0 218.38-103.954 294.954-311.86v623.718H-17v-50.725z"/></g></svg>